# xmcd
#
# Track frame offsets:
#	150
#	23902
#	46250
#	72915
#	96570
#	121932
#	141137
#	164442
#	191980
#	215075
#
# Disc length: 3244 seconds
#
# Revision: 1038064926
# Processed by: cddbd v1.5.2PL0 Copyright (c) Steve Scherf et al.
# Submitted via: EZCDAudioConverter 8.0.2.1
#
DISCID=990caa0a
DTITLE=Đình Văn, Tài Linh - Thuyền Nhỏ Ngày Xưa
DYEAR=1995
DGENRE=Miscellaneous
TTITLE0=Tài Linh - Thuyền Nhỏ Ngày Xưa
TTITLE1=Đình Văn - Áo vàng người yêu
TTITLE2=Tài Linh - Lý con sáo
TTITLE3=Đình Văn - Tình nở đôi tim
TTITLE4=Đình Văn - Trái mồng tơi
TTITLE5=Tài Linh - Lý chiều chiều
TTITLE6=Đình Văn - Về với kỷ niệm
TTITLE7=Tài Linh - Có lẽ
TTITLE8=Đình Văn - Có em về
TTITLE9=Tài Linh - Lý Cái Mơn
EXTD=
EXTT0=
EXTT1=
EXTT2=
EXTT3=
EXTT4=
EXTT5=
EXTT6=
EXTT7=
EXTT8=
EXTT9=
PLAYORDER=
